<svg width="2170" height="1282" viewBox="0 0 2170 1282" fill="none" xmlns="http://www.w3.org/2000/svg">
<path d="M1095.19 1126.09C608.786 1123.89 278.283 411.781 173.831 56C1176.57 273.496 1804.52 146.623 1993.16 56C1896.5 413.612 1581.59 1128.29 1095.19 1126.09Z" fill="#EEEEEE"/>
<path d="M23 770.918C347.267 1133.72 1226.37 1641.64 2148.67 770.918C1785.81 1042.79 852.688 1423.41 23 770.918Z" fill="#EEEEEE"/>
<path d="M1095.19 1126.09C608.786 1123.89 278.283 411.781 173.831 56C1176.57 273.496 1804.52 146.623 1993.16 56C1896.5 413.612 1581.59 1128.29 1095.19 1126.09Z" stroke="#EEEEEE" stroke-width="59.7843"/>
<path d="M23 770.918C347.267 1133.72 1226.37 1641.64 2148.67 770.918C1785.81 1042.79 852.688 1423.41 23 770.918Z" stroke="#EEEEEE" stroke-width="59.7843"/>
</svg>
